<?xml version="1.0" encoding="UTF-8"?>
<svg xmlns="http://www.w3.org/2000/svg" xmlns:xlink="http://www.w3.org/1999/xlink" width="24px" height="24px" viewBox="0 0 24 32" version="1.1">
<g id="surface1">
<path style=" stroke:none;fill:white;fill-opacity:1;" d="M 13.96875 2 C 6.25 2 0 8.269531 0 16 C 0 23.730469 6.25 30 13.96875 30 C 17.757812 30 21.1875 28.488281 23.707031 26.039062 C 24.019531 25.730469 24.101562 25.257812 23.898438 24.867188 C 23.699219 24.480469 23.269531 24.261719 22.835938 24.335938 C 22.226562 24.445312 21.601562 24.5 20.957031 24.5 C 14.898438 24.5 9.988281 19.574219 9.988281 13.5 C 9.988281 9.386719 12.238281 5.804688 15.570312 3.917969 C 15.949219 3.699219 16.144531 3.261719 16.050781 2.835938 C 15.957031 2.414062 15.59375 2.09375 15.15625 2.054688 C 14.761719 2.023438 14.367188 2.007812 13.96875 2.007812 Z M 13.96875 2 "/>
</g>
</svg>
