<?xml version="1.0" encoding="UTF-8"?>
<svg xmlns="http://www.w3.org/2000/svg" xmlns:xlink="http://www.w3.org/1999/xlink" width="24px" height="24px" viewBox="0 0 24 24" version="1.1">
<g id="surface1">
<path style=" stroke:none;fill:orange;fill-opacity:1;" d="M 16.945312 0.0546875 C 17.179688 0.15625 17.347656 0.367188 17.394531 0.613281 L 18.328125 5.671875 L 23.386719 6.601562 C 23.632812 6.648438 23.84375 6.816406 23.945312 7.050781 C 24.042969 7.285156 24.015625 7.550781 23.867188 7.761719 L 20.949219 12 L 23.867188 16.234375 C 24.015625 16.445312 24.042969 16.710938 23.945312 16.945312 C 23.84375 17.179688 23.632812 17.347656 23.386719 17.394531 L 18.328125 18.328125 L 17.394531 23.386719 C 17.347656 23.632812 17.179688 23.84375 16.945312 23.945312 C 16.710938 24.042969 16.445312 24.015625 16.234375 23.867188 L 12 20.949219 L 7.765625 23.867188 C 7.554688 24.015625 7.289062 24.042969 7.054688 23.945312 C 6.820312 23.84375 6.652344 23.632812 6.605469 23.386719 L 5.671875 18.328125 L 0.613281 17.394531 C 0.367188 17.347656 0.15625 17.179688 0.0546875 16.945312 C -0.0429688 16.710938 -0.015625 16.445312 0.132812 16.234375 L 3.050781 12 L 0.132812 7.765625 C -0.015625 7.554688 -0.0429688 7.289062 0.0546875 7.054688 C 0.15625 6.820312 0.367188 6.652344 0.613281 6.605469 L 5.671875 5.671875 L 6.605469 0.613281 C 6.652344 0.367188 6.820312 0.15625 7.054688 0.0546875 C 7.289062 -0.0429688 7.554688 -0.015625 7.765625 0.132812 L 12 3.050781 L 16.234375 0.132812 C 16.445312 -0.015625 16.710938 -0.0429688 16.945312 0.0546875 Z M 7.5 12 C 7.5 9.515625 9.515625 7.5 12 7.5 C 14.484375 7.5 16.5 9.515625 16.5 12 C 16.5 14.484375 14.484375 16.5 12 16.5 C 9.515625 16.5 7.5 14.484375 7.5 12 Z M 18 12 C 18 8.6875 15.3125 6 12 6 C 8.6875 6 6 8.6875 6 12 C 6 15.3125 8.6875 18 12 18 C 15.3125 18 18 15.3125 18 12 Z M 18 12 "/>
</g>
</svg>
